# Blender v2.69 (sub 0) OBJ File: 'bullet.blend'
# www.blender.org
o Cone
v 0.000000 211.088852 -9.283465
v 0.000000 229.655777 0.000000
v 1.811114 211.088852 -9.105086
v 3.552629 211.088852 -8.576803
v 5.157617 211.088852 -7.718919
v 6.564401 211.088852 -6.564401
v 7.718920 211.088852 -5.157617
v 8.576803 211.088852 -3.552628
v 9.105086 211.088852 -1.811115
v 9.283465 211.088852 -0.000001
v 9.105086 211.088852 1.811113
v 8.576804 211.088852 3.552627
v 7.718920 211.088852 5.157617
v 6.564401 211.088852 6.564401
v 5.157617 211.088852 7.718920
v 3.552627 211.088852 8.576804
v 1.811112 211.088852 9.105086
v -0.000003 211.088852 9.283465
v -1.811118 211.088852 9.105085
v -3.552633 211.088852 8.576801
v -5.157621 211.088852 7.718916
v -6.564405 211.088852 6.564397
v -7.718923 211.088852 5.157611
v -8.576807 211.088852 3.552621
v -9.105087 211.088852 1.811106
v -9.283465 211.088852 -0.000009
v -9.105084 211.088852 -1.811124
v -8.576799 211.088852 -3.552638
v -7.718913 211.088852 -5.157627
v -6.564393 211.088852 -6.564410
v -5.157607 211.088852 -7.718926
v -3.552616 211.088852 -8.576809
v -1.811100 211.088852 -9.105088
v 0.000002 172.645432 -9.283465
v 1.811116 172.645432 -9.105086
v 3.552631 172.645432 -8.576803
v 5.157619 172.645432 -7.718919
v 6.564404 172.645432 -6.564401
v 7.718922 172.645432 -5.157617
v 8.576806 172.645432 -3.552628
v 9.105088 172.645432 -1.811115
v 9.283467 172.645432 -0.000001
v 9.105088 172.645432 1.811113
v 8.576806 172.645432 3.552627
v 7.718922 172.645432 5.157617
v 6.564404 172.645432 6.564401
v 5.157619 172.645432 7.718920
v 3.552629 172.645432 8.576804
v 1.811114 172.645432 9.105086
v -0.000001 172.645432 9.283465
v -1.811116 172.645432 9.105085
v -3.552630 172.645432 8.576801
v -5.157619 172.645432 7.718916
v -6.564404 172.645432 6.564397
v -7.718921 172.645432 5.157611
v -8.576804 172.645432 3.552621
v -9.105085 172.645432 1.811106
v -9.283463 172.645432 -0.000009
v -9.105083 172.645432 -1.811124
v -8.576797 172.645432 -3.552638
v -7.718911 172.645432 -5.157627
v -6.564391 172.645432 -6.564410
v -5.157604 172.645432 -7.718926
v -3.552614 172.645432 -8.576809
v -1.811098 172.645432 -9.105088
vn -0.259887 0.445488 -0.856737
vn 0.087753 0.445488 -0.890977
vn -0.422034 0.445488 -0.789575
vn -0.567964 0.445489 -0.692067
vn -0.692065 0.445487 -0.567968
vn -0.789574 0.445489 -0.422035
vn -0.856737 0.445489 -0.259889
vn -0.890976 0.445488 -0.087755
vn -0.890977 0.445489 0.087749
vn -0.856737 0.445488 0.259888
vn -0.789574 0.445489 0.422034
vn -0.692065 0.445487 0.567967
vn -0.567965 0.445489 0.692066
vn -0.422037 0.445490 0.789572
vn -0.259889 0.445489 0.856736
vn -0.087754 0.445489 0.890977
vn 0.087753 0.445488 0.890977
vn 0.259888 0.445489 0.856737
vn 0.422034 0.445487 0.789575
vn 0.567965 0.445489 0.692066
vn 0.692067 0.445489 0.567963
vn 0.789574 0.445489 0.422034
vn 0.856738 0.445489 0.259883
vn 0.890977 0.445488 0.087755
vn 0.890977 0.445488 -0.087755
vn 0.856737 0.445488 -0.259889
vn 0.789574 0.445489 -0.422035
vn 0.692067 0.445489 -0.567963
vn 0.567965 0.445489 -0.692066
vn 0.422035 0.445487 -0.789574
vn -0.087753 0.445488 -0.890977
vn 0.259888 0.445488 -0.856737
vn -0.773011 -0.000000 0.634393
vn 0.000000 -1.000000 0.000000
vn 0.956940 0.000000 0.290285
vn -0.290282 -0.000000 -0.956941
vn -0.634394 -0.000000 0.773010
vn 0.995185 0.000000 0.098017
vn -0.471394 -0.000000 -0.881922
vn -0.471397 -0.000000 0.881921
vn 0.995185 0.000000 -0.098017
vn -0.634393 -0.000000 -0.773011
vn -0.290286 -0.000000 0.956940
vn 0.956940 0.000000 -0.290285
vn -0.773010 -0.000000 -0.634394
vn -0.098018 -0.000000 0.995185
vn 0.881921 0.000000 -0.471397
vn -0.881921 0.000000 -0.471398
vn 0.773011 0.000000 -0.634393
vn 0.098017 0.000000 0.995185
vn -0.098017 -0.000000 -0.995185
vn -0.956940 -0.000000 -0.290286
vn 0.634394 0.000000 -0.773010
vn 0.290284 0.000000 0.956940
vn -0.995185 -0.000000 -0.098018
vn 0.471397 0.000000 -0.881921
vn 0.471396 0.000000 0.881922
vn -0.995185 -0.000000 0.098017
vn 0.290286 0.000000 -0.956940
vn 0.634394 0.000000 0.773010
vn -0.956941 -0.000000 0.290284
vn 0.773010 0.000000 0.634394
vn -0.881921 -0.000000 0.471397
vn 0.098017 0.000000 -0.995185
vn 0.881921 0.000000 0.471397
vn 0.000000 -1.000000 0.000065
vn 0.000000 -1.000000 -0.000040
vn 0.000000 -1.000000 -0.000028
vn 0.000000 -1.000000 0.000021
vn 0.000000 -1.000000 0.000016
vn 0.000000 -1.000000 -0.000013
vn 0.000000 -1.000000 0.000011
vn 0.000000 -1.000000 -0.000010
vn 0.000000 -1.000000 -0.000009
vn 0.000000 -1.000000 0.000008
vn 0.000000 -1.000000 0.000006
vn 0.000000 -1.000000 -0.000094
vn 0.000000 -1.000000 0.000032
vn 0.000000 -1.000000 0.000094
vn 0.000000 -1.000000 0.000002
vn 0.000000 -1.000000 0.000004
vn 0.000000 -1.000000 -0.000007
vn 0.000000 -1.000000 -0.000016
vn 0.000000 -1.000000 -0.000001
vn 0.956940 0.000000 0.290284
vn -0.290283 -0.000000 -0.956941
vn -0.471396 -0.000000 -0.881922
vn -0.634392 -0.000000 -0.773012
vn -0.290285 -0.000000 0.956940
vn -0.098017 -0.000000 0.995185
vn 0.881921 0.000000 -0.471396
vn 0.773010 0.000000 -0.634394
vn 0.634393 0.000000 -0.773011
vn 0.290285 0.000000 0.956940
vn 0.471396 0.000000 -0.881922
vn 0.471397 0.000000 0.881921
vn -0.995185 0.000000 0.098016
vn 0.290284 0.000000 -0.956940
vn 0.634393 0.000000 0.773011
vn 0.773010 0.000000 0.634393
vn -0.881922 -0.000000 0.471396
vn 0.881922 0.000000 0.471396
s off
f 32//1 2//1 33//1
f 1//2 2//2 3//2
f 31//3 2//3 32//3
f 30//4 2//4 31//4
f 29//5 2//5 30//5
f 28//6 2//6 29//6
f 27//7 2//7 28//7
f 26//8 2//8 27//8
f 25//9 2//9 26//9
f 24//10 2//10 25//10
f 23//11 2//11 24//11
f 22//12 2//12 23//12
f 21//13 2//13 22//13
f 20//14 2//14 21//14
f 19//15 2//15 20//15
f 18//16 2//16 19//16
f 17//17 2//17 18//17
f 16//18 2//18 17//18
f 15//19 2//19 16//19
f 14//20 2//20 15//20
f 13//21 2//21 14//21
f 12//22 2//22 13//22
f 11//23 2//23 12//23
f 10//24 2//24 11//24
f 9//25 2//25 10//25
f 8//26 2//26 9//26
f 7//27 2//27 8//27
f 6//28 2//28 7//28
f 5//29 2//29 6//29
f 4//30 2//30 5//30
f 33//31 2//31 1//31
f 3//32 2//32 4//32
f 22//33 23//33 54//33
f 34//34 35//34 65//34
f 11//35 12//35 43//35
f 32//36 33//36 64//36
f 21//37 22//37 53//37
f 10//38 11//38 42//38
f 31//39 32//39 63//39
f 20//40 21//40 52//40
f 9//41 10//41 41//41
f 30//42 31//42 62//42
f 19//43 20//43 51//43
f 8//44 9//44 40//44
f 29//45 30//45 61//45
f 18//46 19//46 50//46
f 7//47 8//47 39//47
f 28//48 29//48 60//48
f 6//49 7//49 38//49
f 17//50 18//50 49//50
f 33//51 1//51 65//51
f 27//52 28//52 59//52
f 5//53 6//53 37//53
f 16//54 17//54 48//54
f 26//55 27//55 58//55
f 4//56 5//56 36//56
f 15//57 16//57 47//57
f 25//58 26//58 57//58
f 3//59 4//59 35//59
f 14//60 15//60 46//60
f 24//61 25//61 56//61
f 13//62 14//62 45//62
f 23//63 24//63 55//63
f 1//64 3//64 34//64
f 12//65 13//65 44//65
f 23//33 55//33 54//33
f 35//34 36//34 65//34
f 36//66 37//66 65//66
f 37//67 38//67 65//67
f 38//68 39//68 65//68
f 39//69 40//69 65//69
f 40//70 41//70 65//70
f 41//71 42//71 65//71
f 42//72 43//72 65//72
f 43//73 44//73 65//73
f 44//74 45//74 65//74
f 45//75 46//75 65//75
f 60//76 58//76 59//76
f 52//77 50//77 51//77
f 52//78 49//78 50//78
f 60//34 57//34 58//34
f 46//79 47//79 48//79
f 65//80 46//80 48//80
f 64//34 65//34 63//34
f 65//81 48//81 63//81
f 48//82 49//82 63//82
f 49//34 52//34 63//34
f 53//34 54//34 55//34
f 53//83 55//83 56//83
f 53//75 56//75 57//75
f 53//84 57//84 60//84
f 52//84 53//84 63//84
f 53//34 60//34 63//34
f 60//34 61//34 63//34
f 61//34 62//34 63//34
f 12//85 44//85 43//85
f 33//86 65//86 64//86
f 22//37 54//37 53//37
f 11//38 43//38 42//38
f 32//87 64//87 63//87
f 21//40 53//40 52//40
f 10//41 42//41 41//41
f 31//88 63//88 62//88
f 20//89 52//89 51//89
f 9//44 41//44 40//44
f 30//45 62//45 61//45
f 19//90 51//90 50//90
f 8//91 40//91 39//91
f 29//48 61//48 60//48
f 7//92 39//92 38//92
f 18//50 50//50 49//50
f 1//51 34//51 65//51
f 28//52 60//52 59//52
f 6//93 38//93 37//93
f 17//94 49//94 48//94
f 27//55 59//55 58//55
f 5//95 37//95 36//95
f 16//96 48//96 47//96
f 26//97 58//97 57//97
f 4//98 36//98 35//98
f 15//99 47//99 46//99
f 25//61 57//61 56//61
f 14//100 46//100 45//100
f 24//101 56//101 55//101
f 3//64 35//64 34//64
f 13//102 45//102 44//102
