# Blender v2.69 (sub 0) OBJ File: 'bullet.blend'
# www.blender.org
o Cone
v 0.000000 210.663773 -9.708539
v 0.000000 230.080856 0.000000
v 1.894042 210.663773 -9.521992
v 3.715297 210.663773 -8.969521
v 5.393775 210.663773 -8.072355
v 6.864974 210.663773 -6.864974
v 8.072355 210.663773 -5.393775
v 8.969521 210.663773 -3.715297
v 9.521992 210.663773 -1.894042
v 9.708539 210.663773 -0.000001
v 9.521993 210.663773 1.894041
v 8.969521 210.663773 3.715296
v 8.072355 210.663773 5.393775
v 6.864974 210.663773 6.864974
v 5.393775 210.663773 8.072355
v 3.715296 210.663773 8.969522
v 1.894040 210.663773 9.521993
v -0.000003 210.663773 9.708539
v -1.894046 210.663773 9.521992
v -3.715301 210.663773 8.969519
v -5.393780 210.663773 8.072352
v -6.864978 210.663773 6.864970
v -8.072359 210.663773 5.393770
v -8.969523 210.663773 3.715290
v -9.521994 210.663773 1.894034
v -9.708539 210.663773 -0.000009
v -9.521990 210.663773 -1.894052
v -8.969516 210.663773 -3.715307
v -8.072349 210.663773 -5.393785
v -6.864965 210.663773 -6.864982
v -5.393764 210.663773 -8.072363
v -3.715284 210.663773 -8.969526
v -1.894027 210.663773 -9.521995
v 0.000002 170.460114 -9.708539
v 1.894044 170.460114 -9.521992
v 3.715300 170.460114 -8.969521
v 5.393778 170.460114 -8.072355
v 6.864976 170.460114 -6.864974
v 8.072358 170.460114 -5.393775
v 8.969522 170.460114 -3.715297
v 9.521995 170.460114 -1.894042
v 9.708541 170.460114 -0.000001
v 9.521995 170.460114 1.894041
v 8.969523 170.460114 3.715296
v 8.072358 170.460114 5.393775
v 6.864976 170.460114 6.864974
v 5.393777 170.460114 8.072355
v 3.715298 170.460114 8.969522
v 1.894042 170.460114 9.521993
v -0.000001 170.460114 9.708539
v -1.894044 170.460114 9.521992
v -3.715299 170.460114 8.969519
v -5.393778 170.460114 8.072352
v -6.864976 170.460114 6.864970
v -8.072357 170.460114 5.393770
v -8.969522 170.460114 3.715290
v -9.521992 170.460114 1.894034
v -9.708537 170.460114 -0.000009
v -9.521988 170.460114 -1.894052
v -8.969514 170.460114 -3.715307
v -8.072347 170.460114 -5.393785
v -6.864963 170.460114 -6.864982
v -5.393762 170.460114 -8.072363
v -3.715282 170.460114 -8.969526
v -1.894025 170.460114 -9.521995
vn -0.259887 0.445488 -0.856738
vn 0.087754 0.445489 -0.890977
vn -0.422036 0.445489 -0.789573
vn -0.567962 0.445487 -0.692070
vn -0.692069 0.445490 -0.567961
vn -0.789573 0.445488 -0.422037
vn -0.856735 0.445487 -0.259897
vn -0.890977 0.445488 -0.087751
vn -0.890977 0.445488 0.087750
vn -0.856736 0.445488 0.259892
vn -0.789573 0.445488 0.422037
vn -0.692069 0.445489 0.567961
vn -0.567965 0.445488 0.692067
vn -0.422035 0.445487 0.789575
vn -0.259889 0.445489 0.856736
vn -0.087754 0.445488 0.890977
vn 0.087753 0.445488 0.890977
vn 0.259888 0.445488 0.856737
vn 0.422037 0.445489 0.789572
vn 0.567964 0.445488 0.692067
vn 0.692066 0.445488 0.567965
vn 0.789573 0.445488 0.422037
vn 0.856737 0.445489 0.259886
vn 0.890977 0.445488 0.087751
vn 0.890977 0.445488 -0.087751
vn 0.856739 0.445489 -0.259881
vn 0.789573 0.445488 -0.422037
vn 0.692066 0.445488 -0.567965
vn 0.567964 0.445488 -0.692067
vn 0.422036 0.445489 -0.789573
vn -0.087753 0.445488 -0.890977
vn 0.259888 0.445488 -0.856737
vn -0.773011 -0.000000 0.634393
vn 0.000000 -1.000000 0.000000
vn 0.956940 0.000000 0.290285
vn -0.290282 -0.000000 -0.956941
vn -0.634394 -0.000000 0.773010
vn 0.995185 0.000000 0.098017
vn -0.471396 -0.000000 -0.881922
vn -0.471398 -0.000000 0.881921
vn 0.995185 0.000000 -0.098017
vn -0.634393 -0.000000 -0.773011
vn -0.290285 -0.000000 0.956940
vn 0.956940 0.000000 -0.290284
vn -0.773010 -0.000000 -0.634394
vn -0.098018 -0.000000 0.995185
vn 0.881921 0.000000 -0.471397
vn -0.881921 -0.000000 -0.471397
vn 0.773011 0.000000 -0.634393
vn 0.098017 0.000000 0.995185
vn -0.098016 -0.000000 -0.995185
vn -0.956940 0.000000 -0.290286
vn 0.634393 0.000000 -0.773010
vn 0.290284 0.000000 0.956940
vn -0.995185 -0.000000 -0.098018
vn 0.471397 0.000000 -0.881921
vn 0.471397 0.000000 0.881921
vn -0.995185 -0.000000 0.098016
vn 0.290285 0.000000 -0.956940
vn 0.634393 0.000000 0.773011
vn -0.956941 0.000000 0.290284
vn 0.773010 0.000000 0.634393
vn -0.881921 0.000000 0.471396
vn 0.098018 0.000000 -0.995185
vn 0.881921 0.000000 0.471396
vn 0.000000 -1.000000 -0.000058
vn 0.000000 -1.000000 -0.000025
vn 0.000000 -1.000000 0.000007
vn 0.000000 -1.000000 -0.000086
vn 0.000000 -1.000000 0.000029
vn 0.000000 -1.000000 -0.000030
vn 0.000000 -1.000000 -0.000007
vn 0.000000 -1.000000 -0.000001
vn 0.000000 -1.000000 -0.000002
vn 0.000000 -1.000000 0.000002
vn 0.000000 -1.000000 0.000004
vn -0.290283 -0.000000 -0.956941
vn -0.471396 -0.000000 0.881922
vn -0.634392 -0.000000 -0.773011
vn 0.956940 0.000000 -0.290285
vn -0.773009 -0.000000 -0.634395
vn -0.098016 -0.000000 0.995185
vn -0.881921 -0.000000 -0.471398
vn 0.773010 0.000000 -0.634394
vn 0.098016 0.000000 0.995185
vn 0.290284 0.000000 0.956941
vn 0.290284 0.000000 -0.956941
vn 0.773010 0.000000 0.634394
vn -0.881922 -0.000000 0.471396
vn 0.098016 0.000000 -0.995185
vn 0.881921 0.000000 0.471397
s off
f 32//1 2//1 33//1
f 1//2 2//2 3//2
f 31//3 2//3 32//3
f 30//4 2//4 31//4
f 29//5 2//5 30//5
f 28//6 2//6 29//6
f 27//7 2//7 28//7
f 26//8 2//8 27//8
f 25//9 2//9 26//9
f 24//10 2//10 25//10
f 23//11 2//11 24//11
f 22//12 2//12 23//12
f 21//13 2//13 22//13
f 20//14 2//14 21//14
f 19//15 2//15 20//15
f 18//16 2//16 19//16
f 17//17 2//17 18//17
f 16//18 2//18 17//18
f 15//19 2//19 16//19
f 14//20 2//20 15//20
f 13//21 2//21 14//21
f 12//22 2//22 13//22
f 11//23 2//23 12//23
f 10//24 2//24 11//24
f 9//25 2//25 10//25
f 8//26 2//26 9//26
f 7//27 2//27 8//27
f 6//28 2//28 7//28
f 5//29 2//29 6//29
f 4//30 2//30 5//30
f 33//31 2//31 1//31
f 3//32 2//32 4//32
f 22//33 23//33 54//33
f 34//34 35//34 65//34
f 11//35 12//35 43//35
f 32//36 33//36 64//36
f 21//37 22//37 53//37
f 10//38 11//38 42//38
f 31//39 32//39 63//39
f 20//40 21//40 52//40
f 9//41 10//41 41//41
f 30//42 31//42 62//42
f 19//43 20//43 51//43
f 8//44 9//44 40//44
f 29//45 30//45 61//45
f 18//46 19//46 50//46
f 7//47 8//47 39//47
f 28//48 29//48 60//48
f 6//49 7//49 38//49
f 17//50 18//50 49//50
f 33//51 1//51 65//51
f 27//52 28//52 59//52
f 5//53 6//53 37//53
f 16//54 17//54 48//54
f 26//55 27//55 58//55
f 4//56 5//56 36//56
f 15//57 16//57 47//57
f 25//58 26//58 57//58
f 3//59 4//59 35//59
f 14//60 15//60 46//60
f 24//61 25//61 56//61
f 13//62 14//62 45//62
f 23//63 24//63 55//63
f 1//64 3//64 34//64
f 12//65 13//65 44//65
f 23//33 55//33 54//33
f 35//66 36//66 65//66
f 36//34 37//34 65//34
f 37//34 38//34 65//34
f 38//67 39//67 65//67
f 39//34 40//34 65//34
f 40//34 41//34 65//34
f 41//34 42//34 65//34
f 42//34 43//34 65//34
f 43//34 44//34 65//34
f 44//34 45//34 65//34
f 45//68 46//68 65//68
f 46//34 47//34 48//34
f 65//34 46//34 48//34
f 53//69 51//69 52//69
f 53//70 50//70 51//70
f 54//71 50//71 53//71
f 54//34 49//34 50//34
f 56//34 54//34 55//34
f 56//34 49//34 54//34
f 62//34 60//34 61//34
f 62//72 59//72 60//72
f 62//73 58//73 59//73
f 62//74 57//74 58//74
f 62//34 56//34 57//34
f 62//75 49//75 56//75
f 62//76 48//76 49//76
f 64//34 65//34 48//34
f 63//34 64//34 48//34
f 62//72 63//72 48//72
f 12//35 44//35 43//35
f 33//77 65//77 64//77
f 22//37 54//37 53//37
f 11//38 43//38 42//38
f 32//39 64//39 63//39
f 21//78 53//78 52//78
f 10//41 42//41 41//41
f 31//79 63//79 62//79
f 20//43 52//43 51//43
f 9//80 41//80 40//80
f 30//81 62//81 61//81
f 19//82 51//82 50//82
f 8//47 40//47 39//47
f 29//83 61//83 60//83
f 7//84 39//84 38//84
f 18//85 50//85 49//85
f 1//51 34//51 65//51
f 28//52 60//52 59//52
f 6//53 38//53 37//53
f 17//86 49//86 48//86
f 27//55 59//55 58//55
f 5//56 37//56 36//56
f 16//57 48//57 47//57
f 26//58 58//58 57//58
f 4//87 36//87 35//87
f 15//60 47//60 46//60
f 25//61 57//61 56//61
f 14//88 46//88 45//88
f 24//89 56//89 55//89
f 3//90 35//90 34//90
f 13//91 45//91 44//91
